<?xml version="1.0" standalone="no"?><!DOCTYPE svg PUBLIC "-//W3C//DTD SVG 1.1//EN" "http://www.w3.org/Graphics/SVG/1.1/DTD/svg11.dtd"><svg t="1642330117417" class="icon" viewBox="0 0 1024 1024" version="1.1" xmlns="http://www.w3.org/2000/svg" p-id="3634" xmlns:xlink="http://www.w3.org/1999/xlink" width="200" height="200"><defs><style type="text/css"></style></defs><path d="M840.6359 669.246837s73.602665-486.513617-320.942669-492.647172-349.554245 492.647172-349.554245 492.647172-42.934888 96.080685-10.222592 116.52587 62.690778 9.533298 90.624742 18.388983 27.933964 34.079202 86.535705 36.123721 85.180481-33.389907 117.881093-34.079202 80.413832 44.979406 153.31552 40.890369 64.735296-39.862269 114.820158-41.906787 51.743842 27.618524 122.974866 11.262376-5.432578-147.20533-5.432578-147.20533z" fill="#EDF8F9" p-id="3635"></path><path d="M598.962133 853.241817c-41.135712 0-73.766227-14.790631-100.344967-26.870814-17.185638-7.792536-32.011318-14.545289-43.530719-14.288264-12.232062 0.257025-24.043537 6.156921-37.712604 12.991455-19.861037 9.942201-44.687332 22.326142-80.495613 21.029333-39.722073-1.37859-54.185581-13.155016-66.931693-23.54117-6.600874-5.385846-12.30216-10.023982-21.169529-12.851259-10.105763-3.201132-20.748942-3.645084-31.999635-4.10072-18.120275-0.74771-38.647241-1.588883-59.956964-14.907461-15.958927-9.97725-19.230157-34.301179-9.731908-72.294173a352.720328 352.720328 0 0 1 17.103857-50.178325c-0.771076-10.269324-4.673185-71.160926 5.152187-145.966936 6.320483-48.063709 16.998711-92.447284 31.719244-131.924015 18.49413-49.547445 43.460621-91.465915 74.221862-124.610481 59.992014-64.548369 142.228388-96.512955 244.501044-94.924072 103.429269 1.612249 184.42725 36.217184 240.774178 102.704925 28.342868 33.471688 50.482082 75.226597 65.798447 124.084748 12.208696 38.915949 20.153111 82.388253 23.587901 129.318714 5.269016 71.663293-1.717396 129.750984-3.247863 141.21197 7.336901 12.944723 48.764686 89.164372 31.135095 129.984644-5.420895 12.570868-15.678536 20.667161-30.457483 24.066903-43.787744 10.047348-62.73751 3.224498-81.056396-3.376376-12.173647-4.381111-23.669682-8.51688-42.993303-7.722439-21.029333 0.852856-30.819656 8.096293-42.140446 16.484661-14.603703 10.818423-31.170145 23.085534-72.586248 25.410444-3.259547 0.186927-6.495727 0.268708-9.638444 0.268708z m-143.279855-52.830358c13.949457 0 29.639676 7.114924 47.759952 15.328047 27.466645 12.465721 61.639311 27.969013 104.504101 25.574006 37.922897-2.126299 52.339673-12.851259 66.289131-23.143949 12.337209-9.136077 23.985122-17.769786 48.612808-18.774521 21.613481-0.864539 34.733448 3.843695 47.432828 8.411733 17.524444 6.3088 34.03247 12.267111 74.478888 2.979155 11.110498-2.546886 18.424032-8.178074 22.349508-17.302468 16.578124-38.390216-31.029949-120.404614-31.544-121.234104l-0.969686-1.834225 0.303757-2.032835c0.093464-0.619197 9.229541-62.468802 3.423108-140.943263-5.36248-71.990416-24.756198-173.223288-86.6759-246.405367-54.068751-63.835708-132.134308-96.968591-232.02364-98.54579-98.756084-1.530468-178.083401 29.207407-235.715456 91.232256-67.422378 72.574564-93.194994 175.887004-102.938584 249.851841-10.619813 80.507296-5.070406 144.564981-5.011991 145.19586l0.128512 1.518785-0.619197 1.390273c-10.584764 23.728097-35.60967 94.713779-12.454038 109.18897 18.69274 11.682963 36.766284 12.418989 54.243996 13.143333 11.531084 0.467319 23.447706 0.958003 35.048888 4.673185 10.993668 3.504889 18.120275 9.34637 25.013223 14.90746 11.881573 9.685176 24.160367 19.685792 59.968648 20.93587 32.840808 1.168296 55.16695-10.012299 74.864425-19.861037 14.311629-7.149973 27.828817-13.902726 42.689546-14.206483z" fill="#ABD2D6" p-id="3636"></path><path d="M338.525528 472.751087m-60.400917 0a60.400917 60.400917 0 1 0 120.801834 0 60.400917 60.400917 0 1 0-120.801834 0Z" fill="#222728" p-id="3637"></path><path d="M325.767733 455.974352m-16.776735 0a16.776734 16.776734 0 1 0 33.553469 0 16.776734 16.776734 0 1 0-33.553469 0Z" fill="#FFFFFF" p-id="3638"></path><path d="M685.474472 472.751087m-60.400917 0a60.400917 60.400917 0 1 0 120.801834 0 60.400917 60.400917 0 1 0-120.801834 0Z" fill="#222728" p-id="3639"></path><path d="M672.72836 455.974352m-16.776735 0a16.776734 16.776734 0 1 0 33.553469 0 16.776734 16.776734 0 1 0-33.553469 0Z" fill="#FFFFFF" p-id="3640"></path><path d="M511.608621 568.773357c46.591655 0 38.44863-19.662426 59.58311-15.257949s20.70221 19.498865 17.524444 26.870814c-8.586978 19.568963-35.446109 30.761241-79.77127 30.761241-52.246209 0-88.358247-21.578432-70.518363-50.096544 12.804527-20.643795 33.623567 7.722438 73.182079 7.722438z" fill="#FE5E52" p-id="3641"></path><path d="M508.863125 614.033155c-37.011626 0-65.740031-10.362788-74.992938-27.046059-4.673185-8.446782-3.98389-17.956714 1.997786-27.513377 8.528563-13.6457 20.643795-8.83232 34.675034-3.259547 10.818423 4.29933 24.277197 9.638444 41.065614 9.638445 25.468859 0 33.880592-6.028409 40.060879-10.432886 5.198918-3.726865 9.685176-6.93968 20.083013-4.766649 9.509932 1.974421 15.993976 6.19197 19.253522 12.524136a21.952287 21.952287 0 0 1 0.303757 18.353935c-9.334687 21.262992-37.841116 32.502002-82.446667 32.502002z m-58.297984-57.597006c-4.030622 0-7.009778 1.764127-9.743591 6.133555-4.860112 7.757487-5.47931 15.02429-1.834226 21.578432 8.08461 14.615386 35.516207 24.043537 69.875801 24.043538 42.058666 0 68.765919-10.035665 77.107554-29.008797a15.935561 15.935561 0 0 0-0.151879-13.33026c-2.40669-4.673185-7.547194-7.874317-15.187852-9.486566-7.886-1.635615-10.748326 0.408904-15.491608 3.796963-6.799484 4.871795-16.122489 11.531084-43.460621 11.531084-17.909982 0-31.94122-5.572773-43.226963-10.047348-7.886-3.107668-13.552237-5.210601-17.886615-5.210601z" fill="#BC2820" p-id="3642"></path></svg>